<svg version="1.1" id="Layer_1" xmlns="http://www.w3.org/2000/svg" xmlns:xlink="http://www.w3.org/1999/xlink" x="0px" y="0px"
	 width="100%" viewBox="0 0 704 560" enable-background="new 0 0 704 560" xml:space="preserve">
<path fill="#000000" opacity="1.000000" stroke="none" 
	d="
M373.139191,33.653458 
	C387.764160,34.635818 401.887451,36.556686 414.895325,42.255142 
	C424.750305,46.572411 434.356781,45.443256 444.240356,44.299141 
	C461.605255,42.289001 477.648712,36.998589 491.275360,25.506216 
	C494.907257,22.443159 495.886383,25.673128 496.291656,28.445744 
	C497.863190,39.196918 494.646973,48.471832 487.327271,56.420704 
	C476.532043,68.143845 462.625244,74.334740 447.624939,78.272842 
	C435.247711,81.522308 422.548859,83.599274 410.266266,87.144356 
	C391.409821,92.586845 375.677948,102.624947 366.196259,120.642090 
	C365.969238,121.073463 365.615997,121.456520 365.257538,121.794044 
	C365.031311,122.007050 364.685730,122.093338 364.389771,122.235115 
	C362.982910,122.157906 362.470520,121.042648 361.908600,120.039246 
	C350.940338,100.453308 333.087463,90.724266 312.211609,85.347717 
	C296.783813,81.374313 280.766113,79.691597 265.956818,73.311386 
	C252.013046,67.304039 239.694534,59.407028 233.255157,44.867790 
	C230.777710,39.274067 229.950272,33.368927 231.793671,27.327980 
	C232.742279,24.219334 234.237961,23.124090 237.116623,25.581949 
	C254.669052,40.568638 275.847168,44.591145 298.005554,45.653240 
	C301.063446,45.799809 303.893463,45.237240 306.753265,44.120167 
	C327.957336,35.837612 349.899994,32.080692 373.139191,33.653458 
z"/>
<path fill="#000000" opacity="1.000000" stroke="none" 
	d="
M268.895233,296.129822 
	C237.984253,269.355225 220.959320,235.764038 216.594772,195.572403 
	C213.028000,162.727142 218.467987,131.604767 233.996017,102.327110 
	C237.210144,96.266968 241.010101,90.618195 245.044357,85.092674 
	C246.789047,82.703079 248.385498,81.734756 251.185547,83.740021 
	C255.885406,87.105820 261.233337,89.414474 266.182526,91.762337 
	C266.201019,93.980087 264.924744,94.645859 263.938477,95.483681 
	C235.967209,119.244568 227.851227,163.734268 250.450211,194.799637 
	C257.343628,204.275558 266.284027,211.416901 276.287231,217.268097 
	C297.137573,229.464188 310.982513,247.475723 320.264374,269.424011 
	C324.934235,280.466522 328.173676,292.063354 333.422699,302.876282 
	C338.148956,312.612396 344.435394,321.099121 353.013824,327.802185 
	C353.895111,328.490814 355.034973,329.031158 355.160706,331.516479 
	C322.554901,328.880219 293.935303,317.479614 268.895233,296.129822 
z"/>
<path fill="#000000" opacity="1.000000" stroke="none" 
	d="
M466.993530,97.978485 
	C465.276154,95.952019 462.939972,94.992203 461.720520,92.133141 
	C465.862213,89.902100 470.132324,87.860519 474.135376,85.386742 
	C480.619019,81.379997 480.631195,81.199577 485.150452,87.628349 
	C499.787445,108.449844 508.305023,131.443329 511.621765,156.795013 
	C514.575867,179.374176 513.125244,201.487030 506.415375,222.906235 
	C487.741974,282.515106 447.146088,318.129669 385.861298,330.017090 
	C381.793823,330.806091 377.512695,332.388550 373.246002,330.850433 
	C372.932343,329.673859 373.562042,329.062408 374.214081,328.581390 
	C386.023621,319.869629 393.317688,307.919189 398.767761,294.601746 
	C403.306946,283.509949 406.858948,272.037567 412.093903,261.207947 
	C421.052338,242.675751 434.207458,228.023163 451.893829,217.534424 
	C465.507019,209.461212 476.869843,199.267548 483.905579,184.820450 
	C497.394318,157.122833 491.345154,122.001640 469.391449,100.329346 
	C468.679901,99.626923 467.963165,98.929695 466.993530,97.978485 
z"/>
<path fill="#000000" opacity="1.000000" stroke="none" 
	d="
M382.510376,530.903687 
	C370.389679,533.499451 358.669922,533.646423 347.018646,530.704346 
	C325.505554,525.272095 312.210144,509.753723 309.697144,487.705505 
	C308.262970,475.122803 308.643036,462.740173 313.132019,450.792114 
	C318.670258,436.051453 329.176147,426.629333 344.396820,422.425934 
	C357.525116,418.800385 370.730774,418.595764 383.840729,422.017853 
	C394.255493,424.736420 402.870819,430.500641 410.077606,439.435669 
	C410.077606,435.365295 410.262634,431.284180 410.027710,427.227386 
	C409.772064,422.812531 411.619965,421.511322 415.920227,421.563477 
	C420.016754,421.613129 421.425964,422.899994 421.410980,427.030396 
	C421.291229,460.022949 421.296692,493.016266 421.403564,526.008911 
	C421.416626,530.036621 419.817596,531.150269 416.033813,531.137939 
	C412.251465,531.125610 410.101990,530.579346 410.428406,525.957397 
	C410.716461,521.879272 409.972412,517.728271 409.574554,512.044983 
	C402.404755,522.157959 393.808289,528.246216 382.510376,530.903687 
M384.200012,433.277832 
	C373.645203,429.901642 362.820770,429.997375 352.120575,431.749146 
	C335.922699,434.400970 325.135437,443.664154 321.609924,460.013916 
	C319.346313,470.511505 319.446381,481.252563 321.635345,491.776581 
	C324.460083,505.357086 332.180389,515.027527 345.810272,519.118713 
	C358.383301,522.892578 371.190094,522.989685 383.717865,519.346680 
	C396.268951,515.696899 404.416595,507.291351 407.969421,494.415710 
	C410.327240,485.870758 409.900879,477.272125 409.675018,468.629883 
	C409.230469,451.620972 400.848694,439.720612 384.200012,433.277832 
z"/>
<path fill="#000000" opacity="1.000000" stroke="none" 
	d="
M282.850769,126.790497 
	C304.917267,110.527748 332.974243,120.403587 338.784637,146.150131 
	C341.722168,159.166733 335.823395,174.039673 324.896545,181.167084 
	C311.660278,189.800919 296.214935,189.367462 283.885071,180.016113 
	C273.179840,171.896957 268.437439,156.804596 272.248077,143.779449 
	C274.174805,137.193741 277.573303,131.647919 282.850769,126.790497 
z"/>
<path fill="#000000" opacity="1.000000" stroke="none" 
	d="
M417.675232,186.812592 
	C404.403168,183.990829 395.172760,176.899185 390.873627,164.263199 
	C386.472809,151.328369 389.097687,139.553864 398.159424,129.511688 
	C408.749847,117.775513 425.946228,115.443787 440.215240,123.314896 
	C454.058014,130.950897 460.368988,146.775467 456.119232,163.193588 
	C452.553223,176.970200 438.221893,187.432739 423.061523,187.287491 
	C421.406921,187.271637 419.754364,187.044464 417.675232,186.812592 
z"/>
<path fill="#000000" opacity="1.000000" stroke="none" 
	d="
M647.448608,494.396149 
	C642.491455,516.414185 625.606445,531.143005 598.943970,532.457031 
	C587.806091,533.005981 576.918213,532.380859 566.676636,527.970520 
	C547.813782,519.847595 539.438965,504.189392 537.820862,484.653046 
	C537.043213,475.263458 537.038574,465.738983 539.608032,456.380554 
	C544.897095,437.117004 557.307495,425.617096 576.666870,421.432587 
	C590.450073,418.453308 604.101929,418.922607 617.490662,423.556458 
	C635.182800,429.679749 644.262268,442.975311 648.043396,460.592957 
	C648.446045,462.468658 648.527710,464.629333 645.962830,464.786072 
	C643.155212,464.957672 639.883057,466.327026 637.789001,463.066132 
	C637.266357,462.252228 637.042908,461.210205 636.826843,460.240723 
	C633.123718,443.630493 622.430908,434.357147 606.015686,431.701874 
	C595.117737,429.939087 584.122620,429.999084 573.458130,433.504089 
	C562.068420,437.247406 554.383179,444.800995 551.007385,456.404755 
	C547.292847,469.172974 547.270264,482.086029 550.809509,494.830078 
	C555.284058,510.942352 567.684265,520.288208 586.042664,521.547546 
	C595.865967,522.221436 605.644409,521.697021 615.057922,518.152954 
	C627.020752,513.649170 633.843628,504.867004 636.728821,492.698334 
	C638.024658,487.233093 641.278625,485.233093 646.452332,487.199799 
	C650.382446,488.693756 647.755127,491.635956 647.448608,494.396149 
z"/>
<path fill="#000000" opacity="1.000000" stroke="none" 
	d="
M204.712723,522.910095 
	C204.724152,490.935303 204.729294,459.446289 204.756805,427.957275 
	C204.761734,422.303223 209.154434,419.557373 214.259552,421.927368 
	C215.934921,422.705139 216.061783,424.203949 216.086182,425.708282 
	C216.137054,428.845703 216.101578,431.984528 216.101578,436.289612 
	C221.708328,430.288788 226.713028,425.185059 233.689056,422.980682 
	C249.802094,417.889130 265.946564,417.832672 281.525085,424.541870 
	C294.283020,430.036285 299.475983,441.368958 301.273193,454.363800 
	C304.136108,475.064301 302.639862,495.921326 303.038513,516.710510 
	C303.089600,519.374634 302.997528,522.041443 302.970184,524.707031 
	C302.909210,530.644775 299.105804,533.116943 293.626282,530.841553 
	C291.077362,529.783020 291.733337,527.570190 291.726929,525.692139 
	C291.662323,506.699158 291.740509,487.705322 291.591644,468.713226 
	C291.540771,462.224487 290.739380,455.787048 288.518524,449.596130 
	C284.898926,439.506012 277.907867,433.416473 267.427643,431.049194 
	C257.638641,428.838043 247.883713,429.181061 238.290573,431.539673 
	C225.373764,434.715485 216.660919,447.024445 216.396637,462.745087 
	C216.049408,483.398804 216.250381,504.061523 216.184723,524.720337 
	C216.166016,530.607422 215.350693,531.112488 209.496552,531.129883 
	C203.334763,531.148193 204.990860,526.774719 204.712723,522.910095 
z"/>
<path fill="#000000" opacity="1.000000" stroke="none" 
	d="
M195.351624,426.150024 
	C195.351456,459.463928 195.352097,492.294708 195.338867,525.125488 
	C195.336578,530.803345 194.707565,531.219727 188.967728,531.056335 
	C185.769974,530.965271 184.541061,529.744568 184.598801,526.534424 
	C184.648132,523.791443 185.270264,520.890808 183.599579,518.016541 
	C182.955658,518.360901 182.212372,518.509094 181.910965,518.955566 
	C170.350967,536.078369 131.535004,535.758728 116.800774,527.287231 
	C105.060921,520.537354 100.227097,509.673065 98.820541,497.196045 
	C96.145363,473.465576 98.196220,449.597992 97.661583,425.796692 
	C97.541611,420.456146 101.445694,421.973236 104.337608,421.699615 
	C107.585152,421.392303 108.588013,422.811188 108.604530,426.084381 
	C108.712158,447.407532 108.781433,468.736176 109.344742,490.050262 
	C109.895721,510.897583 122.143898,522.496460 143.045120,522.664978 
	C149.362076,522.715881 155.642593,522.874512 161.820251,520.794739 
	C175.248032,516.274048 182.468399,506.960693 183.714920,492.861694 
	C185.627213,471.232697 184.181824,449.575134 184.650757,427.936951 
	C184.779572,421.992828 187.317184,420.171539 193.133011,421.784912 
	C195.367950,422.404877 195.244461,424.016174 195.351624,426.150024 
z"/>
<path fill="#000000" opacity="1.000000" stroke="none" 
	d="
M443.962830,432.095032 
	C439.361084,430.820404 435.018646,431.445801 430.712677,431.373505 
	C427.421204,431.318207 426.835480,429.528107 426.949127,426.866119 
	C427.058014,424.315460 426.912170,421.647736 430.666016,421.696533 
	C433.662567,421.735504 436.672058,421.515350 439.654510,421.720245 
	C443.519135,421.985687 445.127411,420.387665 445.065857,416.535645 
	C444.964722,410.210297 445.259460,403.875885 445.058258,397.555786 
	C444.915680,393.076111 446.926056,391.904541 451.090576,391.892609 
	C455.419434,391.880219 456.499603,393.735809 456.342865,397.659821 
	C456.110443,403.478424 456.564240,409.330353 456.208191,415.136353 
	C455.905151,420.077026 457.452301,421.881927 462.629944,421.773804 
	C477.276825,421.467957 491.934814,421.734253 506.587494,421.636383 
	C509.911438,421.614227 511.842957,422.017242 511.700500,426.204681 
	C511.573883,429.926575 510.898682,431.508179 506.726227,431.441071 
	C491.910187,431.202545 477.085449,431.502106 462.269531,431.260529 
	C457.624298,431.184784 456.224060,432.786896 456.258118,437.319763 
	C456.425568,459.631561 456.266846,481.945587 456.343170,504.258362 
	C456.383270,515.990723 461.245880,520.736572 472.779633,520.724243 
	C483.936035,520.712341 495.095154,520.855713 506.247406,520.638367 
	C510.302307,520.559387 511.935547,521.881897 511.948883,526.010742 
	C511.961731,529.981323 510.323029,531.272095 506.535278,531.152100 
	C493.070312,530.725464 479.586975,531.747498 466.123779,530.422852 
	C453.120483,529.143433 446.379761,522.170898 445.626434,509.146820 
	C444.288818,486.019836 445.280792,462.878693 444.996216,439.746338 
	C444.965881,437.279846 445.469452,434.739288 443.962830,432.095032 
z"/>
<path fill="#000000" opacity="1.000000" stroke="none" 
	d="
M88.303955,444.000061 
	C88.312820,471.305939 88.328979,498.111786 88.323326,524.917664 
	C88.322121,530.631897 84.302017,533.157715 78.838821,530.993408 
	C76.493408,530.064270 77.018173,528.054810 77.012093,526.323242 
	C76.969414,514.169434 76.981094,502.015442 76.991188,489.861511 
	C77.016495,459.392731 77.034691,428.923950 77.093353,398.455231 
	C77.105301,392.248383 77.666641,391.967621 83.554657,391.920135 
	C87.377800,391.889343 88.363853,393.525604 88.337479,397.047882 
	C88.221558,412.531158 88.297226,428.015839 88.303955,444.000061 
z"/>
<path fill="#000000" opacity="1.000000" stroke="none" 
	d="
M371.605621,181.389618 
	C375.178864,185.371918 378.611908,188.982635 382.852448,191.718369 
	C384.487335,192.773102 385.756653,193.992188 384.576904,196.211700 
	C378.570984,207.511337 372.575958,218.816483 365.610016,229.568573 
	C365.372284,229.935547 364.808380,230.091248 364.223877,230.451935 
	C361.476898,228.839310 360.518982,225.871582 359.077972,223.368698 
	C354.434448,215.303299 350.023804,207.103973 345.397797,199.028229 
	C343.440948,195.612106 343.448761,193.240250 347.118896,190.705322 
	C352.763306,186.806778 357.209106,181.595337 360.680878,175.604767 
	C361.563629,174.081635 362.020111,172.150681 364.262054,171.291092 
	C367.509277,173.855057 368.713776,178.045715 371.605621,181.389618 
z"/>
<path fill="#000000" opacity="1.000000" stroke="none" 
	d="
M529.352661,457.000000 
	C529.353088,479.989746 529.357544,502.479462 529.339172,524.969177 
	C529.334534,530.676147 526.179932,532.834290 520.737671,531.008301 
	C518.055603,530.108398 518.663330,527.881653 518.653503,526.004150 
	C518.592163,514.176758 518.602966,502.348999 518.603455,490.521362 
	C518.604309,469.697540 518.604187,448.873688 518.628235,428.049866 
	C518.635254,421.956848 520.994141,420.294830 526.997620,421.757263 
	C529.912292,422.467285 529.287659,424.665070 529.300659,426.513733 
	C529.371094,436.508759 529.342590,446.504517 529.352661,457.000000 
z"/>
<path fill="#000000" opacity="1.000000" stroke="none" 
	d="
M528.936646,393.433167 
	C529.195312,395.001465 529.188599,396.163208 529.341370,397.303589 
	C529.944519,401.805511 527.386169,402.283569 523.697815,402.415619 
	C519.256592,402.574615 518.605835,400.491241 518.557068,396.722748 
	C518.502930,392.535339 520.493958,391.561371 524.048950,391.886475 
	C525.675476,392.035187 527.383728,391.786499 528.936646,393.433167 
z"/>
</svg>